<?xml version="1.0" standalone="no"?>
<!DOCTYPE svg PUBLIC "-//W3C//DTD SVG 20010904//EN"
 "http://www.w3.org/TR/2001/REC-SVG-20010904/DTD/svg10.dtd">
<svg version="1.0" xmlns="http://www.w3.org/2000/svg"
 width="577.000000pt" height="490.000000pt" viewBox="0 0 577.000000 490.000000"
 preserveAspectRatio="xMidYMid meet">

<g transform="translate(0.000000,490.000000) scale(0.100000,-0.100000)"
fill="#000000" stroke="none">
<path d="M2175 4869 c-112 -41 -382 -176 -490 -244 -285 -179 -529 -422 -689
-686 -114 -189 -223 -465 -265 -674 -30 -150 -45 -357 -37 -535 9 -210 45
-480 65 -480 4 0 66 107 138 238 l130 237 6 155 c10 282 69 518 187 755 106
210 253 393 445 553 96 80 238 178 320 219 84 43 259 111 347 134 46 12 87 25
91 29 16 14 -134 319 -159 326 -5 2 -45 -10 -89 -27z"/>
<path d="M3344 4873 c12 -31 198 -367 227 -409 28 -41 105 -96 205 -147 l51
-26 75 133 c73 127 82 146 79 173 -2 16 -150 109 -255 159 -91 42 -345 134
-373 134 -10 0 -13 -6 -9 -17z"/>
<path d="M4084 4333 c-43 -71 -86 -140 -96 -155 l-19 -28 79 -83 c163 -174
274 -330 364 -512 110 -223 148 -392 148 -656 l0 -169 44 -82 c81 -155 221
-392 232 -395 13 -4 45 155 65 317 16 128 16 453 0 570 -52 382 -173 672 -417
995 -97 129 -282 325 -306 325 -10 0 -45 -46 -94 -127z"/>
<path d="M1719 3658 c0 -156 -4 -553 -9 -883 -9 -667 -12 -697 -74 -778 -53
-69 -119 -96 -269 -110 l-127 -11 2 -156 3 -155 235 1 c194 1 253 5 336 22
315 64 472 202 546 482 22 84 22 90 25 978 l4 892 -336 0 -335 0 -1 -282z"/>
<path d="M2960 2755 l0 -1185 523 1 c287 1 628 4 757 8 l235 6 3 147 3 148
-433 2 -433 3 -3 1028 -2 1027 -325 0 -325 0 0 -1185z"/>
<path d="M1359 1270 c95 -91 268 -221 400 -301 99 -60 104 -62 118 -44 38 53
154 277 150 289 -3 8 -43 37 -89 64 l-84 49 -284 7 -285 7 74 -71z"/>
<path d="M3840 1330 l-115 -5 -145 -72 c-158 -79 -301 -130 -461 -165 -89 -19
-134 -22 -314 -23 -225 0 -298 10 -447 61 -39 13 -79 24 -89 24 -18 0 -82 -97
-154 -237 -31 -60 -36 -75 -25 -88 15 -19 202 -79 330 -106 121 -26 363 -35
532 -20 426 37 886 216 1183 462 97 80 165 144 165 156 0 6 -48 13 -112 16
-117 7 -153 7 -348 -3z"/>
<path d="M92 461 c-11 -7 -11 -9 2 -14 14 -6 16 -29 15 -164 0 -87 -4 -180 -7
-207 -9 -61 -29 -73 -34 -19 -3 33 -6 38 -27 38 -33 0 -48 -26 -33 -59 24 -54
128 -39 176 27 19 25 21 46 24 203 3 137 7 177 18 181 8 3 11 9 8 14 -7 11
-125 12 -142 0z"/>
<path d="M442 450 c-42 -26 -47 -40 -35 -101 l10 -50 -43 -30 c-53 -36 -64
-55 -64 -109 0 -77 63 -113 160 -90 62 15 87 15 147 5 23 -4 54 -4 70 0 28 7
28 7 6 18 -25 14 -63 60 -63 76 0 21 41 93 67 117 l26 24 -48 0 c-48 0 -48 0
-30 -21 19 -19 19 -21 0 -55 -10 -18 -21 -34 -25 -34 -9 0 -54 49 -74 81 -16
26 -16 27 19 53 66 50 69 97 9 122 -47 20 -93 17 -132 -6z m102 -12 c21 -30
20 -61 -3 -89 -18 -21 -21 -22 -35 -9 -8 8 -22 32 -30 52 -14 33 -14 38 0 52
22 22 50 20 68 -6z m-74 -210 c23 -28 48 -65 57 -81 14 -28 14 -32 -3 -44 -10
-7 -25 -13 -34 -13 -60 0 -128 138 -88 178 19 19 25 15 68 -40z"/>
<path d="M802 461 c-11 -7 -11 -9 2 -14 14 -6 16 -31 16 -178 0 -168 0 -171
-22 -177 -47 -12 18 -21 165 -21 l147 -1 0 60 c0 33 -2 60 -5 60 -3 0 -11 -15
-19 -34 -18 -43 -60 -66 -121 -66 l-45 0 0 180 c0 180 0 180 23 180 18 0 19 2
7 10 -18 12 -130 13 -148 1z"/>
<path d="M1766 461 c-18 -7 -18 -8 -3 -14 15 -6 17 -27 17 -178 0 -165 -1
-171 -21 -176 -39 -11 3 -23 78 -23 70 0 104 12 63 23 -18 5 -20 14 -20 92 l0
86 38 -3 c34 -3 38 -6 49 -43 6 -22 14 -57 18 -77 9 -59 35 -83 89 -82 56 1
67 10 39 29 -13 9 -26 36 -34 67 -16 69 -27 86 -66 99 -43 14 -42 23 6 38 42
12 81 52 81 82 0 10 -10 30 -23 45 -20 23 -34 28 -108 35 -105 10 -178 10
-203 0z m222 -77 c4 -75 -12 -97 -67 -92 l-36 3 -3 78 -3 78 53 -3 53 -3 3
-61z"/>
<path d="M2600 460 c0 -5 7 -10 15 -10 13 0 15 -27 15 -180 0 -175 -1 -180
-21 -180 -11 0 -17 -4 -14 -10 8 -13 105 -13 105 0 0 6 -9 10 -19 10 -10 0
-22 7 -25 16 -11 28 -7 294 4 294 6 0 66 -74 133 -165 l122 -166 7 43 c3 24 7
104 7 178 1 137 4 153 31 162 30 11 -37 19 -71 10 -26 -8 -28 -10 -11 -11 30
-1 33 -13 30 -117 l-3 -89 -78 103 c-43 57 -90 107 -103 113 -33 12 -124 12
-124 -1z"/>
<path d="M3099 455 c-59 -32 -74 -138 -26 -183 12 -11 51 -29 87 -41 87 -28
110 -45 110 -81 0 -41 -40 -70 -98 -70 -41 0 -49 4 -89 47 l-43 48 0 -58 c0
-55 1 -57 21 -47 15 9 33 8 68 -1 57 -14 89 -8 130 27 65 54 64 164 -2 204
-18 11 -60 29 -94 41 -75 24 -90 40 -77 77 6 18 21 31 44 39 21 7 27 12 15 12
-11 0 -32 -6 -46 -14z"/>
<path d="M3392 462 c-11 -8 -11 -10 2 -15 14 -6 16 -31 16 -178 0 -162 -1
-171 -20 -176 -11 -3 -17 -9 -14 -14 7 -12 161 -11 169 1 3 5 0 10 -8 10 -21
0 -27 22 -27 99 l0 68 68 6 c83 7 119 22 138 58 30 59 8 112 -54 128 -54 14
-255 23 -270 13z m216 -24 c16 -16 16 -140 0 -156 -7 -7 -31 -12 -55 -12 l-43
0 0 90 0 90 43 0 c24 0 48 -5 55 -12z"/>
<path d="M3910 454 c-83 -36 -141 -137 -125 -222 14 -77 88 -149 172 -167 120
-25 256 123 224 243 -34 123 -163 193 -271 146z m131 -13 c23 -18 24 -27 27
-147 5 -170 0 -192 -45 -210 -44 -19 -89 -10 -108 20 -11 16 -17 65 -22 162
l-6 140 32 27 c39 32 88 36 122 8z"/>
<path d="M4265 460 c-19 -8 -19 -9 3 -9 22 -1 22 -1 22 -177 0 -167 -1 -176
-20 -181 -42 -11 -5 -23 70 -23 75 0 112 12 70 23 -18 5 -20 14 -20 92 l0 86
32 -3 c38 -4 54 -29 63 -101 4 -27 15 -58 28 -73 24 -27 83 -41 107 -25 13 9
12 13 -7 26 -15 11 -23 26 -23 46 0 55 -26 99 -70 117 -22 9 -40 20 -40 23 0
4 15 10 33 13 75 15 108 80 65 130 -18 21 -36 29 -88 36 -80 12 -198 12 -225
0z m226 -31 c14 -28 6 -118 -12 -130 -8 -5 -31 -9 -51 -9 l-38 0 0 80 0 80 45
0 c35 0 47 -4 56 -21z"/>
<path d="M4693 460 c-19 -8 -23 -17 -23 -55 0 -25 2 -45 5 -45 2 0 11 13 20
29 22 44 43 61 76 61 l29 0 0 -169 c0 -137 -3 -172 -15 -185 -8 -8 -15 -17
-15 -20 0 -10 158 -7 164 3 3 5 -3 11 -14 14 -19 5 -20 14 -20 181 l0 176 33
0 c36 0 62 -22 90 -75 l16 -30 1 56 0 56 -67 6 c-96 10 -254 7 -280 -3z"/>
<path d="M5120 461 c-31 -6 -32 -7 -12 -13 23 -6 23 -7 20 -175 -2 -92 -5
-175 -8 -183 -4 -13 18 -15 153 -18 l157 -3 -1 63 c0 62 0 63 -17 38 -45 -66
-67 -80 -131 -80 l-61 0 0 74 c0 41 3 81 6 90 10 26 34 19 70 -20 l34 -35 0
70 c0 39 -2 71 -4 71 -3 0 -18 -13 -34 -30 -56 -55 -72 -39 -72 71 l0 69 50 0
c58 0 106 -21 115 -50 11 -33 25 -23 25 19 l0 38 -77 7 c-88 7 -163 6 -213 -3z"/>
<path d="M5539 434 c-30 -31 -34 -41 -33 -86 1 -62 24 -87 106 -113 116 -38
145 -78 93 -130 -18 -19 -35 -25 -68 -25 -39 0 -49 5 -83 40 -22 22 -43 40
-47 40 -5 0 -7 -19 -5 -43 3 -39 5 -42 33 -43 17 -1 50 -4 75 -8 106 -16 188
88 146 187 -16 39 -19 40 -163 102 -23 10 -44 24 -48 33 -9 23 21 60 58 71
l32 9 -31 1 c-22 1 -39 -8 -65 -35z"/>
<path d="M1331 403 c0 -49 2 -54 10 -33 17 42 60 80 91 80 l28 0 0 -176 c0
-167 -1 -176 -20 -181 -42 -11 -5 -23 70 -23 75 0 112 12 70 23 -19 5 -20 14
-20 181 l0 176 24 0 c41 0 57 -11 87 -58 30 -48 35 -42 23 31 l-7 37 -178 0
-179 0 1 -57z"/>
<path d="M2322 388 c-17 -40 -49 -122 -72 -182 -30 -76 -48 -110 -61 -113 -37
-10 -18 -23 31 -23 28 0 50 5 50 10 0 6 -10 10 -21 10 -19 0 -21 4 -15 32 10
50 23 58 88 58 58 0 59 0 74 -36 18 -43 12 -66 -13 -58 -15 5 -16 4 -3 -5 15
-11 142 -16 152 -6 3 3 -7 29 -22 58 -16 29 -43 88 -60 132 -48 122 -82 195
-90 195 -5 0 -22 -33 -38 -72z m26 -117 c11 -33 18 -62 14 -65 -12 -12 -83 -6
-88 8 -6 16 34 116 46 116 5 0 17 -27 28 -59z"/>
<path d="M3205 449 c11 -6 32 -25 48 -43 l27 -31 -2 40 c-3 40 -3 40 -48 43
-38 2 -42 0 -25 -9z"/>
<path d="M5677 441 c17 -11 34 -29 38 -40 11 -35 26 -23 23 17 -3 36 -4 37
-48 40 l-45 3 32 -20z"/>
</g>
</svg>
